<svg xmlns="http://www.w3.org/2000/svg" viewBox="0 0 776.25 448.89"><defs><style>.cls-1{font-size:14px;}.cls-1,.cls-6,.cls-7,.cls-8{fill:#1d1d1b;font-family:Consolas, Consolas;}.cls-2{letter-spacing:1.47em;}.cls-10,.cls-11,.cls-3,.cls-4{fill:none;}.cls-3,.cls-5{stroke:#7d7978;stroke-width:0.5px;}.cls-10,.cls-12,.cls-13,.cls-14,.cls-15,.cls-16,.cls-17,.cls-18,.cls-19,.cls-20,.cls-21,.cls-3,.cls-5,.cls-9{stroke-miterlimit:10;}.cls-4{stroke:#485b65;stroke-width:0.25px;}.cls-11,.cls-4{stroke-linecap:round;stroke-linejoin:round;}.cls-5{fill:#3c4951;}.cls-6{font-size:36.01px;}.cls-7{font-size:32.36px;}.cls-8{font-size:32px;}.cls-9{fill:#5a76a5;}.cls-10,.cls-11,.cls-12,.cls-13,.cls-14,.cls-15,.cls-16,.cls-17,.cls-18,.cls-19,.cls-20,.cls-21,.cls-9{stroke:#12100b;stroke-width:0.75px;}.cls-12{fill:#cd8a63;}.cls-13{fill:#5f9e6f;}.cls-14{fill:#b65d60;}.cls-15{fill:#867bac;}.cls-16{fill:#8d7867;}.cls-17{fill:#d195bf;}.cls-18{fill:#8c8c8c;}.cls-19{fill:#c2b37f;}.cls-20{fill:#494949;}.cls-21{fill:#595ba4;}</style></defs><title>IDs</title><g id="Layer_2" data-name="Layer 2"><g id="Base"><g id="C-1"><text class="cls-1" transform="translate(97.16 404.68)">1<tspan class="cls-2" x="7.7" y="0">	</tspan><tspan x="36" y="0">2</tspan><tspan class="cls-2" x="43.7" y="0">	</tspan><tspan x="72" y="0">3</tspan><tspan class="cls-2" x="79.7" y="0">	</tspan><tspan x="108" y="0">4</tspan><tspan class="cls-2" x="115.7" y="0">	</tspan><tspan x="144" y="0">5</tspan><tspan class="cls-2" x="151.7" y="0">	</tspan><tspan x="180" y="0">6</tspan><tspan class="cls-2" x="187.7" y="0">	</tspan><tspan x="216" y="0">7</tspan><tspan class="cls-2" x="223.7" y="0">	</tspan><tspan x="252" y="0">8</tspan><tspan class="cls-2" x="259.7" y="0">	</tspan><tspan x="288" y="0">9</tspan></text><text class="cls-1" transform="translate(53 84.89)">10</text><text class="cls-1" transform="translate(68.39 80.23) scale(0.58)">6</text><text class="cls-1" transform="translate(53 111.89)">10</text><text class="cls-1" transform="translate(68.39 107.23) scale(0.58)">5</text><text class="cls-1" transform="translate(53 138.89)">10</text><text class="cls-1" transform="translate(68.39 134.23) scale(0.58)">4</text><text class="cls-1" transform="translate(53 165.89)">10</text><text class="cls-1" transform="translate(68.39 161.23) scale(0.58)">3</text><text class="cls-1" transform="translate(53 192.89)">10</text><text class="cls-1" transform="translate(68.39 188.23) scale(0.58)">2</text><text class="cls-1" transform="translate(53 219.89)">10</text><text class="cls-1" transform="translate(68.39 215.23) scale(0.58)">1</text><text class="cls-1" transform="translate(53 246.89)">10</text><text class="cls-1" transform="translate(68.39 242.23) scale(0.58)">0</text><line class="cls-3" x1="77.89" y1="391.38" x2="77.89" y2="259.89"/><line class="cls-3" x1="77.89" y1="252.85" x2="77.89" y2="62.89"/><line class="cls-4" x1="81.89" y1="376.42" x2="408.13" y2="376.42"/><line class="cls-4" x1="81.89" y1="328.06" x2="408.13" y2="328.06"/><line class="cls-4" x1="81.89" y1="279.71" x2="408.13" y2="279.71"/><line class="cls-4" x1="81.89" y1="244.39" x2="408.13" y2="244.39"/><line class="cls-4" x1="81.89" y1="217.08" x2="408.13" y2="217.08"/><line class="cls-4" x1="81.89" y1="189.77" x2="408.13" y2="189.77"/><line class="cls-4" x1="81.89" y1="162.46" x2="408.13" y2="162.46"/><line class="cls-4" x1="81.89" y1="135.14" x2="408.13" y2="135.14"/><line class="cls-4" x1="81.89" y1="107.83" x2="408.13" y2="107.83"/><line class="cls-4" x1="81.89" y1="80.15" x2="408.13" y2="80.15"/><text class="cls-1" transform="translate(49.79 282.71)">100<tspan x="7.7" y="48">50</tspan><tspan x="15.39" y="96">0</tspan></text></g><g id="C-2"><line class="cls-3" x1="413.96" y1="252.85" x2="413.96" y2="62.89"/><text class="cls-1" transform="translate(435.34 404.68)">1</text><line class="cls-4" x1="418.84" y1="80.15" x2="459.55" y2="80.15"/><line class="cls-4" x1="418.84" y1="244.39" x2="459.55" y2="244.39"/><line class="cls-4" x1="418.84" y1="217.08" x2="459.55" y2="217.08"/><line class="cls-4" x1="418.84" y1="189.77" x2="459.55" y2="189.77"/><line class="cls-4" x1="418.84" y1="162.46" x2="459.55" y2="162.46"/><line class="cls-4" x1="418.84" y1="135.14" x2="459.55" y2="135.14"/><line class="cls-4" x1="418.84" y1="107.83" x2="459.55" y2="107.83"/><line class="cls-4" x1="418.84" y1="376.42" x2="459.55" y2="376.42"/><line class="cls-4" x1="418.84" y1="328.07" x2="459.55" y2="328.07"/><line class="cls-4" x1="418.84" y1="279.71" x2="459.55" y2="279.71"/><line class="cls-5" x1="413.96" y1="391.38" x2="413.96" y2="259.89"/></g><g id="C-3"><line class="cls-3" x1="465.96" y1="252.85" x2="465.96" y2="62.89"/><line class="cls-4" x1="471.16" y1="80.15" x2="558.87" y2="80.15"/><line class="cls-4" x1="471.16" y1="244.39" x2="558.87" y2="244.39"/><line class="cls-4" x1="471.16" y1="217.08" x2="558.87" y2="217.08"/><line class="cls-4" x1="471.16" y1="189.77" x2="558.87" y2="189.77"/><line class="cls-4" x1="471.16" y1="162.46" x2="558.87" y2="162.46"/><line class="cls-4" x1="471.16" y1="135.14" x2="558.87" y2="135.14"/><line class="cls-4" x1="471.16" y1="107.83" x2="558.87" y2="107.83"/><line class="cls-4" x1="471.16" y1="376.42" x2="558.87" y2="376.42"/><line class="cls-4" x1="471.16" y1="328.07" x2="558.87" y2="328.07"/><line class="cls-4" x1="471.16" y1="279.71" x2="558.87" y2="279.71"/><line class="cls-5" x1="465.96" y1="391.38" x2="465.96" y2="259.89"/><text class="cls-1" transform="translate(488.17 404.68)">1<tspan x="-11.55" y="11">can0</tspan></text><text class="cls-1" transform="translate(534.17 404.68)">1<tspan x="-11.55" y="11">can1</tspan></text></g><g id="C-4"><text class="cls-1" transform="translate(583.83 404.68)">1<tspan class="cls-2" x="7.7" y="0">	</tspan><tspan x="36" y="0">2</tspan></text><line class="cls-4" x1="567.52" y1="244.39" x2="643.83" y2="244.39"/><line class="cls-4" x1="567.52" y1="217.08" x2="643.83" y2="217.08"/><line class="cls-4" x1="567.52" y1="189.77" x2="643.83" y2="189.77"/><line class="cls-4" x1="567.52" y1="162.46" x2="643.83" y2="162.46"/><line class="cls-4" x1="567.52" y1="135.14" x2="643.83" y2="135.14"/><line class="cls-4" x1="567.52" y1="107.83" x2="643.83" y2="107.83"/><line class="cls-4" x1="567.52" y1="80.15" x2="643.83" y2="80.15"/><line class="cls-4" x1="567.52" y1="376.42" x2="643.83" y2="376.42"/><line class="cls-4" x1="567.52" y1="328.06" x2="643.83" y2="328.06"/><line class="cls-4" x1="567.52" y1="279.71" x2="643.83" y2="279.71"/><line class="cls-3" x1="564.04" y1="252.85" x2="564.04" y2="62.89"/><line class="cls-3" x1="564.04" y1="391.38" x2="564.04" y2="259.89"/></g><g id="C-5"><text class="cls-1" transform="translate(674.52 404.68)">1<tspan class="cls-2" x="7.7" y="0">	</tspan><tspan x="36" y="0">2</tspan><tspan class="cls-2" x="43.7" y="0">	</tspan><tspan x="72" y="0">3</tspan></text><line class="cls-4" x1="656.13" y1="244.39" x2="772.61" y2="244.39"/><line class="cls-4" x1="656.13" y1="217.08" x2="772.61" y2="217.08"/><line class="cls-4" x1="656.13" y1="189.77" x2="772.61" y2="189.77"/><line class="cls-4" x1="656.13" y1="162.46" x2="772.61" y2="162.46"/><line class="cls-4" x1="656.13" y1="135.14" x2="772.61" y2="135.14"/><line class="cls-4" x1="656.13" y1="107.83" x2="772.61" y2="107.83"/><line class="cls-4" x1="656.13" y1="80.15" x2="772.61" y2="80.15"/><line class="cls-4" x1="656.13" y1="376.42" x2="772.61" y2="376.42"/><line class="cls-4" x1="656.13" y1="328.06" x2="772.61" y2="328.06"/><line class="cls-4" x1="656.13" y1="279.71" x2="772.61" y2="279.71"/><line class="cls-3" x1="650.19" y1="252.85" x2="650.19" y2="62.89"/><line class="cls-3" x1="650.19" y1="391.38" x2="650.19" y2="259.89"/><line class="cls-3" x1="776" y1="391.51" x2="776" y2="260.01"/><line class="cls-3" x1="776" y1="252.92" x2="776" y2="62.95"/></g><line class="cls-3" y1="256.51" x2="776" y2="256.51"/><g id="Axes"><text class="cls-6" transform="translate(379.54 442.54) scale(0.58)">Experiments</text><text class="cls-6" transform="translate(392.63 17.2) scale(0.58)">Vehicles</text><text class="cls-7" transform="translate(234.61 53.23) scale(0.58)">C-1</text><text class="cls-7" transform="translate(424.43 53.23) scale(0.58)">C-2</text><text class="cls-7" transform="translate(499.97 53.23) scale(0.58)">T-1</text><text class="cls-7" transform="translate(591.08 53.23) scale(0.58)">T-2</text><text class="cls-7" transform="translate(700.54 53.23) scale(0.58)">T-3</text><text class="cls-8" transform="translate(15.49 239.63) rotate(-90) scale(0.58)">Number of Frames<tspan x="-17.59" y="36.02">for ID (log scale)</tspan></text><text class="cls-8" transform="translate(15.49 374.22) rotate(-90) scale(0.58)">Number of<tspan x="52.78" y="36.02">IDs</tspan></text></g></g><g id="C-1-2" data-name="C-1"><g id="Layer_13" data-name="Layer 13"><rect class="cls-9" x="85.84" y="107.21" width="29" height="38.21"/><rect class="cls-10" x="85.84" y="107.21" width="29" height="38.21"/><line class="cls-11" x1="100.34" y1="145.43" x2="100.34" y2="229.11"/><line class="cls-11" x1="100.34" y1="107.21" x2="100.34" y2="98.99"/><line class="cls-11" x1="93.09" y1="229.11" x2="107.59" y2="229.11"/><line class="cls-11" x1="93.09" y1="98.99" x2="107.59" y2="98.99"/><line class="cls-11" x1="85.84" y1="126.3" x2="114.84" y2="126.3"/><rect class="cls-12" x="122.09" y="132.44" width="29" height="38.22"/><rect class="cls-10" x="122.09" y="132.44" width="29" height="38.22"/><line class="cls-11" x1="136.59" y1="170.66" x2="136.59" y2="187.11"/><line class="cls-11" x1="136.59" y1="132.44" x2="136.59" y2="124.22"/><line class="cls-11" x1="129.34" y1="187.11" x2="143.84" y2="187.11"/><line class="cls-11" x1="129.34" y1="124.22" x2="143.84" y2="124.22"/><line class="cls-11" x1="122.09" y1="151.54" x2="151.09" y2="151.54"/><rect class="cls-13" x="158.34" y="160.99" width="29" height="38.65"/><rect class="cls-10" x="158.34" y="160.99" width="29" height="38.65"/><line class="cls-11" x1="172.84" y1="199.63" x2="172.84" y2="218.24"/><line class="cls-11" x1="172.84" y1="160.99" x2="172.84" y2="152.75"/><line class="cls-11" x1="165.59" y1="218.24" x2="180.09" y2="218.24"/><line class="cls-11" x1="165.59" y1="152.75" x2="180.09" y2="152.75"/><line class="cls-11" x1="158.34" y1="180.15" x2="187.34" y2="180.15"/><rect class="cls-14" x="194.59" y="106.58" width="29" height="46.4"/><rect class="cls-10" x="194.59" y="106.58" width="29" height="46.4"/><line class="cls-11" x1="209.08" y1="152.98" x2="209.08" y2="224.3"/><line class="cls-11" x1="209.08" y1="106.58" x2="209.08" y2="98.36"/><line class="cls-11" x1="201.83" y1="224.3" x2="216.33" y2="224.3"/><line class="cls-11" x1="201.83" y1="98.36" x2="216.33" y2="98.36"/><line class="cls-11" x1="194.59" y1="125.67" x2="223.58" y2="125.67"/><rect class="cls-15" x="230.83" y="115.88" width="29" height="46.39"/><rect class="cls-10" x="230.83" y="115.88" width="29" height="46.39"/><line class="cls-11" x1="245.33" y1="162.27" x2="245.33" y2="224.3"/><line class="cls-11" x1="245.33" y1="115.88" x2="245.33" y2="107.66"/><line class="cls-11" x1="238.08" y1="224.3" x2="252.58" y2="224.3"/><line class="cls-11" x1="238.08" y1="107.66" x2="252.58" y2="107.66"/><line class="cls-11" x1="230.83" y1="134.98" x2="259.83" y2="134.98"/><rect class="cls-16" x="267.08" y="114.3" width="29" height="46.4"/><rect class="cls-10" x="267.08" y="114.3" width="29" height="46.4"/><line class="cls-11" x1="281.58" y1="160.7" x2="281.58" y2="229.11"/><line class="cls-11" x1="281.58" y1="114.3" x2="281.58" y2="106.08"/><line class="cls-11" x1="274.33" y1="229.11" x2="288.83" y2="229.11"/><line class="cls-11" x1="274.33" y1="106.08" x2="288.83" y2="106.08"/><line class="cls-11" x1="267.08" y1="133.39" x2="296.08" y2="133.39"/><rect class="cls-17" x="303.33" y="108.59" width="29" height="46.4"/><rect class="cls-10" x="303.33" y="108.59" width="29" height="46.4"/><line class="cls-11" x1="317.83" y1="155" x2="317.83" y2="237.33"/><line class="cls-11" x1="317.83" y1="108.59" x2="317.83" y2="100.37"/><line class="cls-11" x1="310.58" y1="237.33" x2="325.08" y2="237.33"/><line class="cls-11" x1="310.58" y1="100.37" x2="325.08" y2="100.37"/><line class="cls-11" x1="303.33" y1="127.68" x2="332.33" y2="127.68"/><rect class="cls-18" x="339.58" y="115.14" width="29" height="46.27"/><rect class="cls-10" x="339.58" y="115.14" width="29" height="46.27"/><line class="cls-11" x1="354.08" y1="161.42" x2="354.08" y2="237.33"/><line class="cls-11" x1="354.08" y1="115.14" x2="354.08" y2="106.9"/><line class="cls-11" x1="346.83" y1="237.33" x2="361.33" y2="237.33"/><line class="cls-11" x1="346.83" y1="106.9" x2="361.33" y2="106.9"/><line class="cls-11" x1="339.58" y1="134.21" x2="368.58" y2="134.21"/><rect class="cls-19" x="375.83" y="92.08" width="29" height="46.39"/><rect class="cls-10" x="375.83" y="92.08" width="29" height="46.39"/><line class="cls-11" x1="390.33" y1="138.47" x2="390.33" y2="237.33"/><line class="cls-11" x1="390.33" y1="92.08" x2="390.33" y2="83.83"/><line class="cls-11" x1="383.08" y1="237.33" x2="397.58" y2="237.33"/><line class="cls-11" x1="383.08" y1="83.83" x2="397.58" y2="83.83"/><line class="cls-11" x1="375.83" y1="111.27" x2="404.83" y2="111.27"/></g><g id="Layer_14" data-name="Layer 14"><rect class="cls-9" x="87.34" y="301.21" width="28.57" height="74.94"/><rect class="cls-12" x="123.04" y="302.18" width="28.57" height="73.97"/><rect class="cls-13" x="158.75" y="302.18" width="28.57" height="73.97"/><rect class="cls-14" x="194.46" y="295.37" width="28.57" height="80.78"/><rect class="cls-15" x="230.17" y="295.37" width="28.57" height="80.78"/><rect class="cls-16" x="265.87" y="295.37" width="28.57" height="80.78"/><rect class="cls-17" x="301.58" y="295.37" width="28.57" height="80.78"/><rect class="cls-18" x="337.29" y="296.34" width="28.57" height="79.81"/><rect class="cls-19" x="372.99" y="290.5" width="28.57" height="85.65"/></g></g><g id="C-2-2" data-name="C-2"><g id="Layer_21" data-name="Layer 21"><rect class="cls-9" x="422.84" y="112.13" width="29" height="27.31"/><rect class="cls-10" x="422.84" y="112.13" width="29" height="27.31"/><line class="cls-11" x1="437.34" y1="139.45" x2="437.34" y2="175.01"/><line class="cls-11" x1="437.34" y1="112.13" x2="437.34" y2="103.91"/><line class="cls-11" x1="430.09" y1="175.01" x2="444.59" y2="175.01"/><line class="cls-11" x1="430.09" y1="103.91" x2="444.59" y2="103.91"/><polygon class="cls-20" points="437.34 103.26 439.46 101.26 437.34 99.27 435.22 101.26 437.34 103.26"/><line class="cls-11" x1="422.84" y1="128.58" x2="451.84" y2="128.58"/></g><g id="Layer_22" data-name="Layer 22"><rect class="cls-9" x="422.76" y="300.72" width="28.57" height="75.43"/></g></g><g id="T-1"><g id="Layer_19" data-name="Layer 19"><rect class="cls-9" x="477.73" y="127.79" width="29" height="54.61"/><rect class="cls-10" x="477.73" y="127.79" width="29" height="54.61"/><line class="cls-11" x1="492.23" y1="182.41" x2="492.23" y2="244.33"/><line class="cls-11" x1="492.23" y1="127.79" x2="492.23" y2="119.51"/><line class="cls-11" x1="484.98" y1="244.33" x2="499.48" y2="244.33"/><line class="cls-11" x1="484.98" y1="119.51" x2="499.48" y2="119.51"/><polygon class="cls-20" points="492.23 110.64 494.35 108.64 492.23 106.64 490.1 108.64 492.23 110.64"/><line class="cls-11" x1="477.73" y1="155.05" x2="506.73" y2="155.05"/><rect class="cls-21" x="522.71" y="118.95" width="29" height="35.53"/><rect class="cls-21" x="522.71" y="118.95" width="29" height="35.53"/><line class="cls-21" x1="537.21" y1="154.47" x2="537.21" y2="243.76"/><line class="cls-21" x1="537.21" y1="118.95" x2="537.21" y2="118.93"/><line class="cls-21" x1="529.96" y1="243.76" x2="544.46" y2="243.76"/><line class="cls-21" x1="529.96" y1="118.93" x2="544.46" y2="118.93"/><polygon class="cls-21" points="537.21 101.84 539.33 99.84 537.21 97.85 535.09 99.84 537.21 101.84"/><line class="cls-21" x1="522.71" y1="141.44" x2="551.71" y2="141.44"/></g><g id="Layer_20" data-name="Layer 20"><rect class="cls-21" x="522.93" y="346.17" width="28.57" height="29.98"/><rect class="cls-9" x="477.94" y="330.7" width="28.57" height="45.45"/></g></g><g id="T-2"><g id="Layer_17" data-name="Layer 17"><rect class="cls-9" x="572.57" y="127.45" width="29" height="8.22"/><rect class="cls-10" x="572.57" y="127.45" width="29" height="8.22"/><line class="cls-11" x1="587.07" y1="135.67" x2="587.07" y2="216.96"/><line class="cls-11" x1="587.07" y1="127.45" x2="587.07" y2="124.8"/><line class="cls-11" x1="579.82" y1="216.96" x2="594.32" y2="216.96"/><line class="cls-11" x1="579.82" y1="124.8" x2="594.32" y2="124.8"/><polygon class="cls-20" points="587.07 118.58 589.19 116.58 587.07 114.58 584.95 116.58 587.07 118.58"/><polygon class="cls-20" points="587.07 110.35 589.19 108.36 587.07 106.36 584.95 108.36 587.07 110.35"/><line class="cls-11" x1="572.57" y1="130.86" x2="601.57" y2="130.86"/><rect class="cls-12" x="608.82" y="134.96" width="29" height="8.22"/><rect class="cls-10" x="608.82" y="134.96" width="29" height="8.22"/><line class="cls-11" x1="623.32" y1="143.19" x2="623.32" y2="231.24"/><line class="cls-11" x1="623.32" y1="134.96" x2="623.32" y2="132.32"/><line class="cls-11" x1="616.07" y1="231.24" x2="630.57" y2="231.24"/><line class="cls-11" x1="616.07" y1="132.32" x2="630.57" y2="132.32"/><polygon class="cls-20" points="623.32 117.87 625.44 115.88 623.32 113.88 621.2 115.88 623.32 117.87"/><polygon class="cls-20" points="623.32 126.09 625.44 124.09 623.32 122.1 621.2 124.09 623.32 126.09"/><line class="cls-11" x1="608.82" y1="138.38" x2="637.82" y2="138.38"/></g><g id="Layer_18" data-name="Layer 18"><rect class="cls-9" x="572.79" y="354.88" width="28.57" height="21.28"/><rect class="cls-12" x="609.04" y="354.88" width="28.57" height="21.28"/></g></g><g id="T-3"><g id="Layer_15" data-name="Layer 15"><rect class="cls-9" x="662.19" y="102.02" width="29" height="34.63"/><rect class="cls-10" x="662.19" y="102.02" width="29" height="34.63"/><line class="cls-11" x1="676.69" y1="136.65" x2="676.69" y2="198.96"/><line class="cls-11" x1="676.69" y1="102.02" x2="676.69" y2="99.63"/><line class="cls-11" x1="669.44" y1="198.96" x2="683.94" y2="198.96"/><line class="cls-11" x1="669.44" y1="99.63" x2="683.94" y2="99.63"/><line class="cls-11" x1="662.19" y1="129.1" x2="691.19" y2="129.1"/><rect class="cls-12" x="698.44" y="117.95" width="29" height="27.11"/><rect class="cls-10" x="698.44" y="117.95" width="29" height="27.11"/><line class="cls-11" x1="712.94" y1="145.07" x2="712.94" y2="180.88"/><line class="cls-11" x1="712.94" y1="117.95" x2="712.94" y2="115.59"/><line class="cls-11" x1="705.69" y1="180.88" x2="720.18" y2="180.88"/><line class="cls-11" x1="705.69" y1="115.59" x2="720.18" y2="115.59"/><line class="cls-11" x1="698.44" y1="126.18" x2="727.43" y2="126.18"/><rect class="cls-13" x="734.68" y="97.69" width="29" height="34.24"/><rect class="cls-10" x="734.68" y="97.69" width="29" height="34.24"/><line class="cls-11" x1="749.18" y1="131.93" x2="749.18" y2="160.43"/><line class="cls-11" x1="749.18" y1="97.69" x2="749.18" y2="93.12"/><line class="cls-11" x1="741.93" y1="160.43" x2="756.43" y2="160.43"/><line class="cls-11" x1="741.93" y1="93.12" x2="756.43" y2="93.12"/><line class="cls-11" x1="734.68" y1="122.59" x2="763.68" y2="122.59"/></g><g id="Layer_16" data-name="Layer 16"><rect class="cls-9" x="662.4" y="353.91" width="28.57" height="22.24"/><rect class="cls-12" x="698.65" y="357.78" width="28.57" height="18.37"/><rect class="cls-13" x="734.9" y="353.91" width="28.57" height="22.24"/></g></g></g></svg>